# xmcd
#
# Track frame offsets: 
#        150
#        25297
#        40489
#        59405
#        80919
#        122051
#        146015
#        163989
#        192860
#        224779
#        243815
#        267370
#        298290
#        316919
#        331315
#
# Disc length: 4660 seconds
#
# Revision: 0
# Processed by: cddbd v1.4PL0 Copyright (c) Steve Scherf et al.
# Submitted via: ExactAudioCopy v0.95a3
#
DISCID=f412320f
DTITLE=Various Artist - Modern Blues
DYEAR=2002
DGENRE=Blues
TTITLE0=Walking Home-Eric Bibb
TTITLE1=Just Like You-Keb' Mo'
TTITLE2=You Don't Miss Your Water-Taj Mahal
TTITLE3=Purple-Edited Version Shuggie Otis
TTITLE4=Tin Pan Alley-Stevie Ray Vaughan and Double Trouble
TTITLE5=In The Dark-Lonnie Brooks
TTITLE6=Just Like Putty-Jimmy Vaughan
TTITLE7=Sitting Here Thinging-Son Seels
TTITLE8=Little Girl-Muddy Waters
TTITLE9=You Shook Me-Willie Dixon
TTITLE10=I'm Free-Lucky Peterson
TTITLE11=Albert's Shuffle-Mike Bloomfield and Al Kooper
TTITLE12=Please Tell Her-James Blood Ulmer
TTITLE13=I'd Rather Go Blind-Chinken Shack
TTITLE14=Red China Blues-Miles Davis
EXTD=
EXTT0=
EXTT1=
EXTT2=
EXTT3=
EXTT4=
EXTT5=
EXTT6=
EXTT7=
EXTT8=
EXTT9=
EXTT10=
EXTT11=
EXTT12=
EXTT13=
EXTT14=
PLAYORDER=
